<?xml version="1.0" encoding="utf-8"?>
<!-- Generator: Adobe Illustrator 16.2.0, SVG Export Plug-In . SVG Version: 6.00 Build 0)  -->
<svg version="1.2" baseProfile="tiny" id="Слой_1"
	 xmlns="http://www.w3.org/2000/svg" xmlns:xlink="http://www.w3.org/1999/xlink" x="0px" y="0px" width="36.146px"
	 height="31.688px" viewBox="-7.8 -2.78 36.146 31.688" xml:space="preserve">
<g>
	<path fill="#FFFFFF" d="M-7.608,12.846c2.682-2.696,5.5-5.223,8.363-7.689c1.42-1.248,2.887-2.437,4.333-3.653
		c1.458-1.2,2.939-2.371,4.408-3.557l0.696-0.563l0.688,0.577l4.372,3.666c1.432,1.256,2.89,2.477,4.294,3.764
		c2.836,2.541,5.623,5.142,8.269,7.915c-3.232-2.059-6.324-4.288-9.366-6.579c-1.537-1.127-3.017-2.322-4.526-3.48L9.481-0.334
		l1.383,0.014c-1.495,1.152-2.979,2.32-4.485,3.46C4.859,4.264,3.362,5.414,1.817,6.504C-1.248,8.716-4.362,10.866-7.608,12.846z"/>
	<path fill="#FFFFFF" d="M-4.388,10.775c0.208,2.761,0.315,5.521,0.463,8.282c0.077,1.381,0.128,2.761,0.176,4.142l0.142,4.141
		l-0.78-0.78c3.681-0.107,7.362-0.19,11.042-0.235L5.638,27.34c-0.059-2.761-0.053-5.521-0.071-8.282L5.559,17.98l1.095-0.011
		c2.454-0.022,4.907-0.015,7.362,0.005l1.088,0.008l-0.006,1.075c-0.012,2.761-0.022,5.521-0.079,8.282l-1.003-1.003
		c3.679,0.043,7.36,0.146,11.04,0.246l-0.759,0.757c0.103-2.606,0.167-5.214,0.316-7.821c0.14-2.606,0.244-5.214,0.441-7.822
		c0.199,2.608,0.303,5.215,0.442,7.822c0.149,2.607,0.214,5.215,0.316,7.821l0.027,0.737l-0.787,0.022
		c-3.68,0.101-7.361,0.201-11.041,0.245l-0.983,0.012l-0.017-1.017c-0.056-2.761-0.069-5.521-0.08-8.282l1.083,1.083
		c-2.455,0.019-4.908,0.026-7.362,0.005l1.086-1.088c-0.018,2.761-0.014,5.521-0.07,8.282l-0.022,1.029l-0.994-0.014
		C2.973,28.31-0.708,28.228-4.388,28.12l-0.806-0.022l0.026-0.758l0.141-4.141c0.047-1.381,0.098-2.761,0.176-4.142
		C-4.703,16.297-4.598,13.536-4.388,10.775z"/>
</g>
</svg>
