<?xml version="1.0" encoding="utf-8"?>
<!-- Generator: Adobe Illustrator 16.2.0, SVG Export Plug-In . SVG Version: 6.00 Build 0)  -->
<svg version="1.2" baseProfile="tiny" id="Слой_1"
	 xmlns="http://www.w3.org/2000/svg" xmlns:xlink="http://www.w3.org/1999/xlink" x="0px" y="0px" width="21px" height="20.5px"
	 viewBox="0 0 21 20.5" xml:space="preserve">
<g>
	<path fill="#E21E3A" d="M14.83,12.91h-0.916l-0.325-0.354c1.152-1.242,1.832-2.955,1.832-4.787
		c-0.03-4.077-3.338-7.386-7.445-7.386c-4.078,0-7.386,3.309-7.386,7.415c0,4.107,3.308,7.386,7.386,7.386
		c1.831,0,3.545-0.68,4.786-1.832l0.354,0.326v0.915l5.702,5.702l1.713-1.715L14.83,12.91z M7.976,12.91
		c-2.836,0-5.111-2.274-5.111-5.14c0-2.836,2.275-5.11,5.111-5.11s5.141,2.274,5.141,5.11C13.116,10.636,10.842,12.91,7.976,12.91
		L7.976,12.91z"/>
</g>
</svg>
